<mxfile host="app.diagrams.net" modified="2021-03-19T09:03:21.716Z" agent="5.0 (Macintosh; Intel Mac OS X 10_14_6) AppleWebKit/537.36 (KHTML, like Gecko) Chrome/89.0.4389.82 Safari/537.36" etag="RL_kS245H6Iy5fcEcb6b" version="14.4.9" type="github">
  <diagram id="C5RBs43oDa-KdzZeNtuy" name="Page-1">
    <mxGraphModel dx="896" dy="477" grid="1" gridSize="10" guides="1" tooltips="1" connect="1" arrows="1" fold="1" page="1" pageScale="1" pageWidth="827" pageHeight="1169" math="0" shadow="0">
      <root>
        <mxCell id="WIyWlLk6GJQsqaUBKTNV-0" />
        <mxCell id="WIyWlLk6GJQsqaUBKTNV-1" parent="WIyWlLk6GJQsqaUBKTNV-0" />
        <mxCell id="kFfudj5nl7y3OrzKhrwz-7" value="AbstractQuickPaymentFacade" style="swimlane;fontStyle=0;align=center;verticalAlign=top;childLayout=stackLayout;horizontal=1;startSize=55;horizontalStack=0;resizeParent=1;resizeParentMax=0;resizeLast=0;collapsible=0;marginBottom=0;html=1;" vertex="1" parent="WIyWlLk6GJQsqaUBKTNV-1">
          <mxGeometry x="60" y="50" width="300" height="75" as="geometry" />
        </mxCell>
        <mxCell id="kFfudj5nl7y3OrzKhrwz-9" value="Map&amp;lt;String,QuickPayService&amp;gt; quickPayServiceMap" style="text;html=1;strokeColor=none;fillColor=none;align=left;verticalAlign=middle;spacingLeft=4;spacingRight=4;overflow=hidden;rotatable=0;points=[[0,0.5],[1,0.5]];portConstraint=eastwest;" vertex="1" parent="kFfudj5nl7y3OrzKhrwz-7">
          <mxGeometry y="55" width="300" height="20" as="geometry" />
        </mxCell>
        <mxCell id="kFfudj5nl7y3OrzKhrwz-15" value="&lt;span style=&quot;font-size: 13.0667px&quot;&gt;AbstractQuickPayService&lt;/span&gt;" style="swimlane;fontStyle=0;align=center;verticalAlign=top;childLayout=stackLayout;horizontal=1;startSize=55;horizontalStack=0;resizeParent=1;resizeParentMax=0;resizeLast=0;collapsible=0;marginBottom=0;html=1;" vertex="1" parent="WIyWlLk6GJQsqaUBKTNV-1">
          <mxGeometry x="414" y="50" width="326" height="75" as="geometry" />
        </mxCell>
        <mxCell id="kFfudj5nl7y3OrzKhrwz-16" value="Map&amp;lt;String, String&amp;gt; quickPayServiceBeanNameCache" style="text;html=1;strokeColor=none;fillColor=none;align=left;verticalAlign=middle;spacingLeft=4;spacingRight=4;overflow=hidden;rotatable=0;points=[[0,0.5],[1,0.5]];portConstraint=eastwest;" vertex="1" parent="kFfudj5nl7y3OrzKhrwz-15">
          <mxGeometry y="55" width="326" height="20" as="geometry" />
        </mxCell>
        <mxCell id="kFfudj5nl7y3OrzKhrwz-30" style="edgeStyle=orthogonalEdgeStyle;rounded=0;orthogonalLoop=1;jettySize=auto;html=1;entryX=0.206;entryY=0.95;entryDx=0;entryDy=0;entryPerimeter=0;" edge="1" parent="WIyWlLk6GJQsqaUBKTNV-1" source="kFfudj5nl7y3OrzKhrwz-24" target="kFfudj5nl7y3OrzKhrwz-16">
          <mxGeometry relative="1" as="geometry" />
        </mxCell>
        <mxCell id="kFfudj5nl7y3OrzKhrwz-24" value="&lt;span style=&quot;font-size: 13.0667px&quot;&gt;BemaQuickPayServiceImpl&lt;/span&gt;" style="swimlane;fontStyle=0;align=center;verticalAlign=top;childLayout=stackLayout;horizontal=1;startSize=55;horizontalStack=0;resizeParent=1;resizeParentMax=0;resizeLast=0;collapsible=0;marginBottom=0;html=1;" vertex="1" parent="WIyWlLk6GJQsqaUBKTNV-1">
          <mxGeometry x="190" y="270" width="326" height="130" as="geometry" />
        </mxCell>
        <mxCell id="kFfudj5nl7y3OrzKhrwz-25" value="&lt;div&gt;public BemaQuickPayServiceImpl() {&lt;/div&gt;&lt;div&gt;&amp;nbsp; &amp;nbsp; &amp;nbsp; &amp;nbsp; super(ChannelEnum.BEMA);&lt;/div&gt;&lt;div&gt;&amp;nbsp; &amp;nbsp; }&lt;/div&gt;" style="text;html=1;strokeColor=none;fillColor=none;align=left;verticalAlign=middle;spacingLeft=4;spacingRight=4;overflow=hidden;rotatable=0;points=[[0,0.5],[1,0.5]];portConstraint=eastwest;" vertex="1" parent="kFfudj5nl7y3OrzKhrwz-24">
          <mxGeometry y="55" width="326" height="75" as="geometry" />
        </mxCell>
        <mxCell id="kFfudj5nl7y3OrzKhrwz-31" style="edgeStyle=orthogonalEdgeStyle;rounded=0;orthogonalLoop=1;jettySize=auto;html=1;entryX=0.38;entryY=1.05;entryDx=0;entryDy=0;entryPerimeter=0;" edge="1" parent="WIyWlLk6GJQsqaUBKTNV-1" source="kFfudj5nl7y3OrzKhrwz-26" target="kFfudj5nl7y3OrzKhrwz-16">
          <mxGeometry relative="1" as="geometry" />
        </mxCell>
        <mxCell id="kFfudj5nl7y3OrzKhrwz-26" value="&lt;span style=&quot;font-size: 13.0667px&quot;&gt;UbaBankQuickPayServiceImpl&lt;/span&gt;" style="swimlane;fontStyle=0;align=center;verticalAlign=top;childLayout=stackLayout;horizontal=1;startSize=55;horizontalStack=0;resizeParent=1;resizeParentMax=0;resizeLast=0;collapsible=0;marginBottom=0;html=1;" vertex="1" parent="WIyWlLk6GJQsqaUBKTNV-1">
          <mxGeometry x="520" y="270" width="326" height="130" as="geometry" />
        </mxCell>
        <mxCell id="kFfudj5nl7y3OrzKhrwz-27" value="&lt;div&gt;public BemaQuickPayServiceImpl() {&lt;/div&gt;&lt;div&gt;&amp;nbsp; &amp;nbsp; &amp;nbsp; &amp;nbsp; super(ChannelEnum.UBABANK);&lt;/div&gt;&lt;div&gt;&amp;nbsp; &amp;nbsp; }&lt;/div&gt;" style="text;html=1;strokeColor=none;fillColor=none;align=left;verticalAlign=middle;spacingLeft=4;spacingRight=4;overflow=hidden;rotatable=0;points=[[0,0.5],[1,0.5]];portConstraint=eastwest;" vertex="1" parent="kFfudj5nl7y3OrzKhrwz-26">
          <mxGeometry y="55" width="326" height="75" as="geometry" />
        </mxCell>
        <mxCell id="kFfudj5nl7y3OrzKhrwz-32" style="edgeStyle=orthogonalEdgeStyle;rounded=0;orthogonalLoop=1;jettySize=auto;html=1;entryX=0.865;entryY=1;entryDx=0;entryDy=0;entryPerimeter=0;" edge="1" parent="WIyWlLk6GJQsqaUBKTNV-1" source="kFfudj5nl7y3OrzKhrwz-28" target="kFfudj5nl7y3OrzKhrwz-16">
          <mxGeometry relative="1" as="geometry" />
        </mxCell>
        <mxCell id="kFfudj5nl7y3OrzKhrwz-28" value="&lt;span style=&quot;font-size: 13.0667px&quot;&gt;PayStackQuickPayServiceImpl&lt;/span&gt;" style="swimlane;fontStyle=0;align=center;verticalAlign=top;childLayout=stackLayout;horizontal=1;startSize=55;horizontalStack=0;resizeParent=1;resizeParentMax=0;resizeLast=0;collapsible=0;marginBottom=0;html=1;" vertex="1" parent="WIyWlLk6GJQsqaUBKTNV-1">
          <mxGeometry x="860" y="270" width="326" height="130" as="geometry" />
        </mxCell>
        <mxCell id="kFfudj5nl7y3OrzKhrwz-29" value="&lt;div&gt;public BemaQuickPayServiceImpl() {&lt;/div&gt;&lt;div&gt;&amp;nbsp; &amp;nbsp; &amp;nbsp; &amp;nbsp; super(ChannelEnum.PAYSTACK);&lt;/div&gt;&lt;div&gt;&amp;nbsp; &amp;nbsp; }&lt;/div&gt;" style="text;html=1;strokeColor=none;fillColor=none;align=left;verticalAlign=middle;spacingLeft=4;spacingRight=4;overflow=hidden;rotatable=0;points=[[0,0.5],[1,0.5]];portConstraint=eastwest;" vertex="1" parent="kFfudj5nl7y3OrzKhrwz-28">
          <mxGeometry y="55" width="326" height="75" as="geometry" />
        </mxCell>
      </root>
    </mxGraphModel>
  </diagram>
</mxfile>
